# xmcd
#
# Track frame offsets:
#	150
#	15706
#	31554
#	43565
#	62570
#	81211
#	96067
#	108974
#	125363
#	144759
#	158396
#	175152
#
# Disc length: 2597 seconds
#
# Revision: 1
# Processed by: cddbd v1.5.2PL0 Copyright (c) Steve Scherf et al.
# Submitted via: audiograbber 1.83.01
#
DISCID=7f0a230c
DTITLE=Various Artist - Jazz and '90s
DYEAR=2006
DGENRE=Jazz
TTITLE0=Eve St. Jones - Space Cowboy
TTITLE1=Karen Souza - Creep
TTITLE2=George White Group - Gypsy Woman
TTITLE3=Sarah Menescal - Don't speak
TTITLE4=The Cooltrance Quartet - Wonderwall
TTITLE5=Jazzistic feat. Karen Souza - Personal Jesus
TTITLE6=Urselle - Suicide Blonde
TTITLE7=Stella Starlight Trio - Black Hole Sun
TTITLE8=Anakelly - November Rain
TTITLE9=Jamie Lancaster  - It ain't over 'til it's over
TTITLE10=48th. St. Collective - Missing
TTITLE11=Ituana - Smells like teen spirit
EXTD=YEAR: 2006
EXTT0=
EXTT1=
EXTT2=
EXTT3=
EXTT4=
EXTT5=
EXTT6=
EXTT7=
EXTT8=
EXTT9=
EXTT10=
EXTT11=
PLAYORDER=
